<svg xmlns="http://www.w3.org/2000/svg" width="470" height="470" viewBox="0 0 470 470">
  <g fill="none">
    <rect width="469.67" height="469.67" x=".21" y=".06" fill="#93DC28"/>
    <path fill="#FFF" d="M42.44 230.64C42.44 192.39 71.36 166.28 107.74 166.28 136.1 166.28 151.96 181.21 160.74 196.69L138 207.88C132.067467 196.704801 120.432196 189.735959 107.78 189.78 86.14 189.78 69.72 207.13 69.72 230.64 69.72 254.15 86.1 271.5 107.74 271.5 120.428262 271.63877 132.120848 264.644857 138 253.4L160.76 264.4C151.76 279.89 136.13 295 107.76 295 71.36 295 42.44 268.89 42.44 230.64zM237.85 166.28C275.54 166.28 302.96 193.15 302.96 230.64 302.96 268.13 275.53 295 237.85 295 200.35 295 172.92 268.13 172.92 230.64 172.92 193.15 200.35 166.28 237.85 166.28zM237.85 189.79C214.9 189.79 200.16 207.33 200.16 230.65 200.16 253.78 214.9 271.51 237.85 271.51 260.8 271.51 275.72 253.79 275.72 230.65 275.72 207.32 260.79 189.78 237.85 189.78L237.85 189.79z"/>
    <polygon fill="#2A2D34" points="393.07 294.82 369.63 294.82 369.63 240.12 321.12 240.12 321.12 218.83 369.63 218.83 369.63 166.28 393.07 166.28 393.07 218.83 441.31 218.83 441.31 240.12 393.07 240.12"/>
  </g>
</svg>
